<svg fill="#000000" xmlns="http://www.w3.org/2000/svg" width="20px" height="20px" viewBox="0 0 3.25 3.25" enable-background="new 0 0 52 52" xml:space="preserve"><path d="M1.875 1.813h1.031c0.05 0 0.094 -0.044 0.094 -0.094v-0.188c0 -0.05 -0.044 -0.094 -0.094 -0.094H1.875c-0.037 0 -0.063 -0.025 -0.063 -0.063V0.344c0 -0.05 -0.044 -0.094 -0.094 -0.094h-0.188c-0.05 0 -0.094 0.044 -0.094 0.094V1.375c0 0.037 -0.025 0.063 -0.063 0.063H0.344c-0.05 0 -0.094 0.044 -0.094 0.094v0.188c0 0.05 0.044 0.094 0.094 0.094H1.375c0.037 0 0.063 0.025 0.063 0.063v1.031c0 0.05 0.044 0.094 0.094 0.094h0.188c0.05 0 0.094 -0.044 0.094 -0.094V1.875c0 -0.037 0.025 -0.063 0.063 -0.063z"/></svg>