<svg fill="#000000" width="20px" height="20px" viewBox="0 0 2.25 2.25" version="1.1" preserveAspectRatio="xMidYMid meet" xmlns="http://www.w3.org/2000/svg" xmlns:xlink="http://www.w3.org/1999/xlink"><title>edit-solid</title><path class="clr-i-solid clr-i-solid-path-1" d="m0.264 1.45 -0.119 0.512a0.129 0.129 0 0 0 0.125 0.156 0.134 0.134 0 0 0 0.027 0L0.813 2l0.99 -0.986L1.25 0.463Z"/><path class="clr-i-solid clr-i-solid-path-2" d="m2.114 0.52 -0.369 -0.369a0.129 0.129 0 0 0 -0.182 0L1.357 0.356l0.552 0.552 0.205 -0.205a0.129 0.129 0 0 0 -0.001 -0.183Z"/><path x="0" y="0" width="36" height="36" fill-opacity="0" d="M0 0H2.25V2.25H0V0z"/></svg>